Coordinates
version=1
nRows=30
nColumns=19
inDegrees=yes

Units are S.I. units (second, meters, Newtons, ...)
If the header above contains a line with 'inDegrees', this indicates whether rotational values are in degrees (yes) or radians (no).

endheader
time	pelvis_tilt	pelvis_list	pelvis_rotation	pelvis_tx	pelvis_ty	pelvis_tz	hip_flexion_r	hip_adduction_r	hip_rotation_r	knee_angle_r	knee_angle_r_beta	ankle_angle_r	hip_flexion_l	hip_adduction_l	hip_rotation_l	knee_angle_l	knee_angle_l_beta	ankle_angle_l
     17.20000000	     -0.18936099	      6.68915210	     -0.64008265	      2.24838343	      0.99786114	      1.00654116	    -12.09164823	    -14.99486832	    -18.27474252	     56.13866486	      0.97980454	     -8.83111755	     19.67188273	      9.52961553	     -8.25472554	     18.77831187	      0.32774337	      0.59297993
     17.20666667	      0.70377771	      7.19315196	     -0.30529016	      2.24870201	      0.99402318	      1.00563026	    -12.33983040	    -15.88138910	    -18.37879018	     58.96009984	      1.02904787	     -7.82168292	     19.07372920	     10.09928783	     -8.51687288	     21.27742058	      0.37136105	      1.56834202
     17.21333333	      0.85206100	      7.32046347	      0.17526943	      2.24857523	      0.98922690	      1.00453394	    -11.57495562	    -16.23469353	    -18.12929978	     61.89108460	      1.08020320	     -7.00199264	     19.51928804	     10.24372813	     -8.59402002	     24.37073976	      0.42534965	      2.92019530
     17.22000000	      1.69608660	      7.76994594	      0.53639333	      2.24841406	      0.98508730	      1.00373426	    -11.59721315	    -16.96007122	    -18.02269811	     64.68279019	      1.12892766	     -6.26484110	     18.99742687	     10.76928508	     -8.52740224	     27.07987865	      0.47263304	      4.47783355
     17.22666667	      1.57320350	      7.73084826	      1.12187606	      2.24779813	      0.97985049	      1.00265067	    -10.33719716	    -16.99250114	    -17.54960840	     67.56957661	      1.17931159	     -5.66730760	     19.72254887	     10.81561294	     -8.15006954	     30.25807948	      0.52810311	      6.27114883
     17.23333333	      1.85275851	      7.87100240	      1.60701332	      2.24706320	      0.97511517	      1.00181272	     -9.47496308	    -17.20833407	    -17.09213116	     70.33059376	      1.22750043	     -5.15438975	     19.81853733	     11.08118694	     -7.69372898	     33.06198047	      0.57704042	      8.18444240
     17.24000000	      2.00751437	      7.96784950	      2.07833518	      2.24610754	      0.97036097	      1.00103803	     -8.35526478	    -17.35755371	    -16.54824408	     73.04708122	      1.27491208	     -4.66684955	     19.95161423	     11.32613371	     -7.15316320	     35.67826396	      0.62270318	     10.15041615
     17.24666667	      2.13433792	      7.98344691	      2.55154455	      2.24497379	      0.96581735	      1.00033137	     -7.11271065	    -17.36257360	    -15.93690216	     75.63597871	      1.32009686	     -4.25012816	     19.98695245	     11.51474883	     -6.50642735	     38.06130728	      0.66429513	     12.15467793
     17.25333333	      2.15122262	      8.00399143	      2.94331245	      2.24372853	      0.96142203	      0.99976975	     -5.62067166	    -17.36212067	    -15.20040085	     78.14253508	      1.36384452	     -3.76572381	     19.98691573	     11.69363978	     -5.91728989	     40.14577929	      0.70067603	     14.07357620
     17.26000000	      2.70976169	      8.19764837	      3.27191957	      2.24245010	      0.95802417	      0.99936338	     -4.75898409	    -17.57340086	    -14.65120435	     80.38934240	      1.40305871	     -3.31655995	     19.11876866	     12.03745994	     -5.30937871	     41.71872703	      0.72812915	     15.94533848
     17.26666667	      2.03639535	      7.96422199	      3.54884435	      2.24085589	      0.95367665	      0.99905041	     -2.15732263	    -17.21067748	    -13.52315594	     82.72985392	      1.44390834	     -2.78902217	     19.62455996	     11.90773712	     -4.85471133	     43.31376988	      0.75596790	     17.57889731
     17.27333333	      1.95449109	      7.91003897	      3.73789350	      2.23935869	      0.95046954	      0.99887585	     -0.26635775	    -17.06406182	    -12.59242552	     84.74440364	      1.47906887	     -2.28110347	     19.20214633	     11.92638907	     -4.44376370	     44.40259388	      0.77497146	     19.10641039
     17.28000000	      2.19226563	      7.90047198	      3.86703119	      2.23794755	      0.94816752	      0.99885907	      1.25322747	    -16.94055644	    -11.74788197	     86.46026469	      1.50901629	     -1.73293129	     18.20400566	     11.94566518	     -4.06659770	     45.09179401	      0.78700027	     20.53004976
     17.28666667	      1.93281915	      7.75943006	      3.76648017	      2.23636755	      0.94587723	      0.99908078	      3.58547917	    -16.63849352	    -10.53697903	     88.09579396	      1.53756166	     -1.29753612	     17.66326020	     11.74075634	     -4.00313918	     45.55832355	      0.79514275	     21.63175301
     17.29333333	      1.79675940	      7.60908591	      3.79573431	      2.23489997	      0.94429856	      0.99924323	      5.67264344	    -16.30108195	     -9.59139820	     89.40095861	      1.56034108	     -0.87834316	     16.80844921	     11.56128085	     -3.76948828	     45.73869641	      0.79829085	     22.65319590
     17.30000000	      1.79321886	      7.43799447	      3.72669322	      2.23351065	      0.94344362	      0.99945763	      7.61375112	    -15.94197576	     -8.67977718	     90.41871506	      1.57810428	     -0.41922317	     15.65537173	     11.32224174	     -3.63295475	     45.62328384	      0.79627652	     23.50903822
     17.30666667	      1.89627199	      7.18972918	      3.96381112	      2.23216279	      0.94335343	      0.99935411	      9.23487585	    -15.55073488	     -8.24459284	     91.05929254	      1.58928447	     -0.05115446	     14.24427294	     11.11334814	     -3.03722065	     45.28833325	      0.79043053	     24.18556590
     17.31333333	      1.70334020	      6.94634485	      3.68444613	      2.23094692	      0.94348275	      0.99987787	     11.44080213	    -15.03900830	     -7.23102912	     91.57153865	      1.59822485	      0.28737198	     13.04818577	     10.72261862	     -3.16716836	     44.65781911	      0.77942598	     24.73666008
     17.32000000	      1.60047535	      6.57100602	      3.94077490	      2.22986264	      0.94437696	      0.99978791	     13.18176512	    -14.54720590	     -7.01965842	     91.63930224	      1.59940755	      0.61960562	     11.63080960	     10.36454323	     -2.56653601	     43.86550891	      0.76559756	     25.11845403
     17.32666667	      1.44570446	      6.18629766	      4.10637783	      2.22883697	      0.94575613	      0.99974650	     14.97361456	    -14.03974932	     -6.77668735	     91.46594580	      1.59638191	      0.90843622	     10.18294532	      9.96323694	     -2.07109273	     42.86893635	      0.74820409	     25.35072860
     17.33333333	      1.20415201	      5.76806984	      4.31186277	      2.22797227	      0.94759545	      0.99972194	     16.75824354	    -13.52672216	     -6.67959726	     91.00711148	      1.58837374	      1.19772707	      8.73289909	      9.51865477	     -1.54621426	     41.66296907	      0.72715599	     25.39909933
     17.34000000	      0.97055662	      5.35298265	      4.51028770	      2.22723226	      0.95000603	      0.99966786	     18.44395417	    -13.01956165	     -6.63817297	     90.26883427	      1.57548837	      1.45519227	      7.16374009	      9.09561970	     -0.93021793	     40.20552158	      0.70171873	     25.22374969
     17.34666667	      1.36563760	      5.11068574	      4.73186510	      2.22693533	      0.95371926	      0.99953549	     19.18695496	    -12.81256931	     -6.89107781	     89.14607976	      1.55589261	      1.76217880	      4.65181065	      8.79834488	     -0.22881563	     38.25892015	      0.66774412	     24.76379705
     17.35333333	      1.50768781	      4.60398927	      5.23557976	      2.22679827	      0.95761139	      0.99911892	     19.98777803	    -12.42740457	     -7.56681223	     87.70543621	      1.53074863	      2.16189648	      2.46214250	      8.21295995	      0.72346390	     36.37097263	      0.63479322	     24.12835668
     17.36000000	      0.93021092	      4.03276022	      5.68624798	      2.22671029	      0.96100524	      0.99877184	     21.59920883	    -12.00205662	     -8.14256840	     86.14915186	      1.50358635	      2.48709364	      1.11306758	      7.58960787	      1.55286097	     34.51582829	      0.60241485	     23.21540303
     17.36666667	      1.64038961	      3.65285727	      6.25651307	      2.22721675	      0.96637400	      0.99817348	     21.39628042	    -11.88968011	     -9.21576645	     84.11645060	      1.46810902	      2.95461799	     -1.96527168	      6.99429029	      2.58816245	     32.01986857	      0.55885213	     21.92825852
     17.37333333	      1.71109967	      3.14613082	      6.75745068	      2.22780593	      0.97114282	      0.99769396	     21.88654755	    -11.68684963	    -10.28127299	     81.97043218	      1.43065393	      3.41897096	     -4.21453848	      6.25461893	      3.35997495	     29.68876846	      0.51816676	     20.38950360
     17.38000000	      1.84693752	      2.57823004	      7.24989589	      2.22863952	      0.97619845	      0.99724304	     22.16570631	    -11.41692850	    -11.46846512	     79.56932366	      1.38874668	      3.86669355	     -6.54078840	      5.39475075	      4.06338951	     27.25847340	      0.47575011	     18.54094244
     17.38666667	      1.94867178	      2.01598407	      7.72830017	      2.22964254	      0.98132146	      0.99680792	     22.36602142	    -11.18300177	    -12.77233080	     76.97575340	      1.34348034	      4.32082419	     -8.80537723	      4.50433246	      4.67413902	     24.79030049	      0.43267237	     16.36791942
     17.39333333	      2.02000054	      1.37668871	      8.15564123	      2.23078689	      0.98645512	      0.99648359	     22.50145995	    -10.84438741	    -14.16186310	     74.17062326	      1.29452158	      4.72257594	    -10.96363295	      3.50266734	      5.11476709	     22.35937961	      0.39024479	     13.94366743
